<svg xmlns="http://www.w3.org/2000/svg" xmlns:xlink="http://www.w3.org/1999/xlink" viewBox="110 20 705 285" aria-hidden="true" focusable="false" role="img" aria-labelledby="t"><title id="t">witnessd</title><defs><path id="a" d="m371 190-9-53h9l5 35v6l1 5v-5l1-6 6-35h10l6 35v6l1 5v-5l1-6 5-35h8l-8 53h-11l-6-34-1-6v-6l-1 6-1 6-5 34Zm52 0v-9h19v-34h-17v-10h27v44h17v9Zm23-62q-3 0-5-2-2-1-2-4 0-4 2-5 2-2 5-2t5 2q2 1 2 5 0 3-2 4-2 2-5 2Zm59 62q-7 0-11-4t-4-11v-28h-15v-10h15v-15h10v15h22v10h-22v28l2 4q1 2 4 2h15v9Zm30 0v-53h10v10q1-5 5-8 3-3 9-3 8 0 13 5t5 14v35h-11v-34q0-5-3-8-2-3-7-3t-8 3q-3 3-3 9v33Zm76 1q-9 0-15-6-6-5-6-15v-13q0-9 6-15t15-6q7 0 12 3 4 2 7 7t3 11v9h-33v5q0 5 3 8t8 3l7-1q3-2 4-5h10q-1 7-7 11-5 4-14 4Zm-11-34v2h23v-2q0-6-3-9-3-4-9-4-5 0-8 4-3 3-3 9Zm65 34q-9 0-15-4-5-4-5-12h10q0 4 3 5 2 2 7 2h4q4 0 7-2 2-1 2-5 0-6-6-7l-14-2q-6 0-9-4t-3-10q0-8 5-12t14-4h4q8 0 13 4t6 11h-11q0-3-2-5l-6-1h-4q-5 0-7 2-2 1-2 4 0 5 5 6l13 2q15 2 15 16 0 8-6 12-5 4-14 4Zm55 0q-9 0-14-4t-5-12h10q0 4 2 5 3 2 7 2h5q4 0 7-2 2-1 2-5 0-6-6-7l-14-2q-6 0-9-4-4-4-4-10 0-8 5-12t14-4h4q9 0 14 4t5 11h-10q0-3-3-5l-6-1h-4q-4 0-6 2-3 1-3 4 0 5 6 6l13 2q14 2 14 16 0 8-5 12t-14 4Z"/><path id="b" d="M776 156q-5 0-8-4-3-3-3-9v-9q0-6 3-9 3-4 8-4l6 2 3 5-1-7v-10h7v44h-6v-6l-3 5-6 2Zm2-6q3 0 5-2l1-5v-9l-1-5q-2-2-5-2t-5 2q-2 1-2 5v9q0 4 2 5 2 2 5 2Z"/></defs><g transform="translate(120 30)"><path fill="none" stroke="#000" stroke-opacity=".9" stroke-linecap="round" stroke-linejoin="round" stroke-width="20" d="M110 0h95c10 0 15 10 15 20v115c0 65-55 100-110 125C55 235 0 200 0 135V20C0 10 5 0 15 0h95Z"/><path fill="none" stroke="#fff" stroke-opacity=".98" stroke-linecap="round" stroke-linejoin="round" stroke-width="14" d="M110 0h95c10 0 15 10 15 20v115c0 65-55 100-110 125C55 235 0 200 0 135V20C0 10 5 0 15 0h95Z"/><path fill="none" stroke="#000" stroke-opacity=".9" stroke-linecap="round" stroke-linejoin="round" stroke-width="18" d="M25 150h40v-20h25v35h25v-25h25l30-15 20 10 15-30"/><path fill="none" stroke="#19c6c2" stroke-linecap="round" stroke-linejoin="round" stroke-width="12" d="M25 150h40v-20h25v35h25v-25h25l30-15 20 10 15-30"/><path fill="#000" fill-opacity=".9" d="m25 150 10-10 10 10-10 10Z"/><path fill="#fff" fill-opacity=".98" d="m28 150 7-7 7 7-7 7Z"/><circle cx="205" cy="105" r="12" fill="#000" fill-opacity=".9"/><circle cx="205" cy="105" r="8" fill="#ffb020"/></g><g><g fill="none" stroke="#000" stroke-opacity=".9" stroke-width="10" stroke-linejoin="round" paint-order="stroke"><use xlink:href="#a"/></g><g fill="none" stroke="#000" stroke-opacity=".9" stroke-width="10" stroke-linejoin="round" paint-order="stroke"><use xlink:href="#b"/></g><g fill="#fff" fill-opacity=".98"><use xlink:href="#a"/></g><g fill="#ffb020"><use xlink:href="#b"/></g></g></svg>
